<svg xmlns="http://www.w3.org/2000/svg" width="48" height="48" viewBox="0 0 48 48">
    <g fill="#ED3897" fill-rule="evenodd">
        <path d="M35.751 10.022a5.333 5.333 0 0 1 5.333 5.334v14.222a5.333 5.333 0 0 1-5.333 5.333H19.53l-6 5.333v-5.333h-.889a5.333 5.333 0 0 1-5.333-5.333V15.356a5.333 5.333 0 0 1 5.333-5.334h23.111zm0-2.666H12.64a8 8 0 0 0-8 8v14.222a8 8 0 0 0 6.222 7.804v2.862a2.667 2.667 0 0 0 4.445 1.992l5.244-4.658h15.2a8 8 0 0 0 8-8V15.356a8 8 0 0 0-8-8z"/>
        <circle cx="24.64" cy="22.911" r="1.778"/>
        <circle cx="33.529" cy="22.911" r="1.778"/>
        <circle cx="15.858" cy="22.911" r="1.778"/>
    </g>
</svg>
