<svg xmlns="http://www.w3.org/2000/svg" xmlns:xlink="http://www.w3.org/1999/xlink" width="44" height="24" viewBox="0 0 44 24">
    <defs>
        <radialGradient id="b" cx="0%" cy="0%" r="253.139%" fx="0%" fy="0%" gradientTransform="matrix(.39504 .39504 -.2729 1.47585 0 0)">
            <stop offset="0%" stop-color="#FFF"/>
            <stop offset="100%" stop-color="#F3F3F3"/>
        </radialGradient>
        <rect id="a" width="28" height="12.04" y=".068" rx=".973"/>
        <radialGradient id="e" cx="21.026%" cy="16.539%" r="102.588%" fx="21.026%" fy="16.539%" gradientTransform="matrix(.37477 .65392 -.35388 .82652 .19 -.109)">
            <stop offset="0%" stop-color="#65BCF2"/>
            <stop offset="100%" stop-color="#004FC5"/>
        </radialGradient>
        <path id="d" d="M0 0v14.205h28.676V0H0z"/>
    </defs>
    <g fill="none" fill-rule="evenodd">
        <path d="M0 0h44v24H0z"/>
        <g transform="translate(8 6)">
            <mask id="c" fill="#fff">
                <use xlink:href="#a"/>
            </mask>
            <use fill="url(#b)" xlink:href="#a"/>
            <g mask="url(#c)">
                <g transform="translate(0 -1.15)">
                    <mask id="f" fill="#fff">
                        <use xlink:href="#d"/>
                    </mask>
                    <use fill="url(#e)" xlink:href="#d"/>
                    <g mask="url(#f)">
                        <path fill="#FFF" d="M6.695 6.629h.393l.111-.256.001.256h6.382V5.454h.288v.087l-.001.067.008 1.021h3.222V6.28c.432.286.964.349 1.278.349h1.3l.285-.722h.773l.296.722h2.556v-.836l.497.836h2.022V2.165h-1.985v.663l-.393-.663h-2.105v.68l-.286-.68h-2.904c-.557 0-.995.12-1.334.355v-.355h-1.984v.203c-.357-.181-.73-.203-1.145-.203H6.915l-.539 1.292-.585-1.292H3.556v.692l-.292-.692H1.336L-.541 6.629h2.145l.294-.722h.777l.291.722h2.556v-.258l.113.258h1.06zM17.1 3.401c.05-.085.106-.167.178-.244.247-.26.632-.379 1.156-.379h.736v.694h-.72c-.277 0-.436.043-.588.192-.127.138-.217.394-.217.734 0 .348.066.596.21.76.115.127.329.167.53.167h.342l1.072-2.547h1.14l1.288 3.062V2.778h1.161l1.338 2.255V2.778h.779v3.238h-1.08l-1.442-2.428.002 2.428h-1.55l-.297-.722h-1.584l-.284.722h-.892c-.37 0-.84-.084-1.103-.357-.27-.277-.407-.647-.407-1.238 0-.374.055-.72.232-1.02zm-1.38 1.24V2.778h.776v3.238h-.776V4.641zm-3.5-1.863h1.751c.387 0 .675.013.921.157.242.143.386.355.386.718 0 .225-.071.397-.162.533a.896.896 0 0 1-.374.329.852.852 0 0 1 .374.273c.108.158.129.305.129.59v.638h-.768l-.004-.408c0-.193.02-.474-.122-.628-.11-.115-.278-.14-.553-.14h-.818v1.176h-.76V2.778zm-3.07 0h2.542v.677h-1.78v.581h1.736v.665L9.911 4.7v.647h1.78v.67H9.149V2.778zm-4.23.7v2.538H3.37l-.29-.722H1.493l-.293.722H.373l1.361-3.238h1.133L4.16 5.845V2.778h1.244L6.4 4.976l.916-2.198h1.267v3.238h-.78l-.004-2.533-1.103 2.533h-.667l-1.11-2.538z"/>
                        <path fill="#FFF" d="M1.758 4.6h1.083l-.543-1.218-.54 1.218M14.449 3.958c.1-.05.16-.148.16-.274a.26.26 0 0 0-.161-.252c-.093-.046-.234-.05-.371-.05h-.956v.634h.943c.153 0 .28-.005.385-.058M20.422 3.382L19.884 4.6h1.082l-.544-1.218M12.174 11.364V8.658l-1.082 1.33 1.082 1.376M13.863 8.929H12.85v.947h1.006c.298 0 .482-.168.482-.49 0-.327-.194-.457-.475-.457M7.304 8.929v.587h1.65v.661h-1.65v.646h1.848l.858-.95-.823-.944H7.304"/>
                        <path fill="#FFF" d="M28.032 9.627h.086V7.71h-2.12c-.356 0-.646.084-.885.213v-.213h-2.12a1.85 1.85 0 0 0-.845.191v-.19h-3.732v.196c-.365-.174-.724-.197-1.12-.197h-2.349v.21c-.258-.128-.594-.21-1.033-.21h-2.682l-.694.763-.67-.763H5.952v4.465h3.863l.179-.197.52-.575.672.772h2.34V11.09h.345c.462 0 .808-.088 1.076-.222v1.308h1.961v-1.183h.21l.078.001v1.182h6.28c.36 0 .667-.07.927-.19v.19h2.077c1.121 0 1.79-.612 1.79-1.637 0-.369-.076-.665-.238-.912zm-13.283.66l-.072.035c-.054.026-.11.05-.168.069l-.088.024a1.685 1.685 0 0 1-.189.035c-.028.004-.054.01-.083.013a3.04 3.04 0 0 1-.278.013h-.946v1.086h-1.47l-.933-1.07-.97 1.07h-3V8.325H9.6l.93 1.06.964-1.06h2.42c.085 0 .172.004.259.013.025.002.05.007.075.01a1.813 1.813 0 0 1 .265.058c.06.018.116.043.172.07.02.01.043.019.062.031a.844.844 0 0 1 .2.157c.15.16.243.394.243.728 0 .466-.178.738-.441.894zm3.68.043c.108.159.125.306.127.592v.64h-.76v-.405c0-.195.018-.482-.122-.632-.11-.12-.28-.146-.555-.146h-.811v1.183h-.76V8.325h1.748c.384 0 .664.016.912.155a.787.787 0 0 1 .387.719.903.903 0 0 1-.536.858.873.873 0 0 1 .37.273zm3.118-1.888v.554h-1.775v.586h1.73v.66h-1.73v.645l1.775.004v.671h-2.53V8.325h2.53v.117zm2.856 2.806a.794.794 0 0 1-.142.113 1.034 1.034 0 0 1-.242.121c-.037.012-.078.02-.118.029-.127.03-.266.051-.426.051h-1.477v-.694h1.471c.146 0 .246-.02.31-.081a.281.281 0 0 0 .09-.21.271.271 0 0 0-.094-.214c-.058-.051-.137-.072-.27-.074l-.359-.012-.043-.002c-.26-.013-.516-.048-.726-.147a.787.787 0 0 1-.274-.21c-.117-.144-.193-.342-.193-.63 0-.29.111-.59.383-.775l.002-.002a.995.995 0 0 1 .17-.09l.019-.01c.058-.023.124-.039.191-.053l.041-.011c.085-.015.176-.022.277-.022h1.52v.688h-1.39c-.139 0-.228.006-.305.059-.082.053-.113.132-.113.234 0 .12.071.204.166.24.08.029.164.036.293.038l.41.01c.096.003.184.01.265.02.074.009.14.023.203.038.005 0 .01.002.014.003.16.04.289.104.381.199.15.158.228.355.228.685 0 .314-.098.542-.262.709zm2.077.314h-1.477v-.694h1.471c.146 0 .245-.02.31-.081a.28.28 0 0 0 .09-.21.27.27 0 0 0-.094-.214c-.058-.051-.137-.072-.269-.074l-.338-.011c-.01 0-.02 0-.03-.002a3.815 3.815 0 0 1-.341-.03l-.006-.001c-.478-.068-.88-.27-.88-.958 0-.21.062-.422.197-.596a.874.874 0 0 1 .14-.14l.012-.01a.872.872 0 0 1 .164-.098l.035-.019c.057-.024.12-.043.188-.058.02-.004.036-.011.056-.015.088-.016.184-.026.29-.026h1.52v.688h-1.39c-.139 0-.228.006-.305.059-.082.053-.112.132-.112.234 0 .12.07.204.165.24.08.029.164.036.293.038l.41.01c.412.012.692.084.863.26.15.158.228.355.228.685 0 .698-.427 1.023-1.19 1.023z"/>
                        <path fill="#FFF" d="M17.694 8.979c-.092-.048-.232-.05-.37-.05h-.957v.64h.945c.15 0 .28-.005.382-.058a.302.302 0 0 0 .161-.274c0-.123-.06-.21-.16-.258"/>
                        <path fill="#2584BA" d="M24.048 11.5c-.032.01-.07.016-.106.024.036-.008.073-.015.106-.025M23.454 10.293l-.324-.011.324.01M23.107 10.276c-.234-.013-.466-.042-.653-.13.189.088.419.118.653.13M26.546 10.292l-.304-.01.304.01M18.26 8.523"/>
                    </g>
                </g>
            </g>
        </g>
    </g>
</svg>
