<svg xmlns="http://www.w3.org/2000/svg" width="32" height="32" viewBox="0 0 32 32">
    <g fill="none" fill-rule="evenodd">
        <path fill="#D8D8D8" fill-opacity="0" fill-rule="nonzero" d="M0 0h32v32H0z"/>
        <path fill="#212121" d="M26.154 4H5.846A1.846 1.846 0 0 0 4 5.843v20.27c0 1.015.828 1.842 1.846 1.842h9.692a.461.461 0 0 0 .462-.46v-6.45a.461.461 0 0 0-.462-.46h-1.846a.461.461 0 0 1-.461-.462v-3.685c0-.254.207-.46.461-.46h1.846a.461.461 0 0 0 .462-.461v-1.843c0-2.794 2.277-5.067 5.077-5.067h2.77c.254 0 .46.206.46.46v3.686c0 .254-.206.46-.46.46H22c-.763 0-1.385.62-1.385 1.382v.922c0 .254.207.46.462.46h2.77a.463.463 0 0 1 .457.518l-.462 3.686a.462.462 0 0 1-.457.403h-2.308a.461.461 0 0 0-.462.46v6.45c0 .254.207.46.462.46h5.077A1.846 1.846 0 0 0 28 26.113V5.842A1.846 1.846 0 0 0 26.154 4"/>
    </g>
</svg>
