<svg xmlns="http://www.w3.org/2000/svg" width="48" height="48" viewBox="0 0 48 48">
    <g fill="none" fill-rule="evenodd">
        <path d="M0 48h48V0H0z"/>
        <path fill="#ED3897" d="M24 6.786a2.829 2.829 0 0 1 1.833.929c.599.802.921 1.78.917 2.786v7.43l11 8.358v2.786L25.833 24.43v10.216l4.584 3.715v1.857L24 38.362l-6.417 1.857v-1.857l4.584-3.715V24.431L10.25 29.075v-2.786l11-8.359V10.5a4.628 4.628 0 0 1 .917-2.785A2.829 2.829 0 0 1 24 6.786zM24 4a5.579 5.579 0 0 0-3.777 1.746 7.226 7.226 0 0 0-1.723 4.755v6.036L8.6 24.06a2.799 2.799 0 0 0-1.1 2.229v2.786c0 .918.446 1.778 1.194 2.298s1.7.633 2.546.302l8.177-3.185v4.82l-3.548 2.879a2.8 2.8 0 0 0-1.036 2.173v1.857a2.799 2.799 0 0 0 1.095 2.22 2.721 2.721 0 0 0 2.407.455L24 41.259l5.665 1.635c.828.238 1.72.07 2.407-.455a2.799 2.799 0 0 0 1.095-2.22v-1.857a2.8 2.8 0 0 0-1.036-2.173l-3.548-2.88v-4.82l8.177 3.186a2.72 2.72 0 0 0 2.546-.302 2.797 2.797 0 0 0 1.194-2.298v-2.786c0-.877-.408-1.703-1.1-2.23l-9.9-7.522v-6.036a7.226 7.226 0 0 0-1.723-4.755A5.579 5.579 0 0 0 24 4z"/>
    </g>
</svg>
