<svg xmlns="http://www.w3.org/2000/svg" width="32" height="32" viewBox="0 0 32 32">
    <g fill="none" fill-rule="evenodd">
        <path fill="#D8D8D8" fill-opacity="0" fill-rule="nonzero" d="M0 0h32v32H0z"/>
        <path fill="#212121" d="M25.2 17.175h-2v1.996a.4.4 0 0 1-.4.4h-1.6a.4.4 0 0 1-.4-.4v-1.996h-2a.4.4 0 0 1-.4-.4V15.18c0-.22.18-.4.4-.4h2v-1.996c0-.22.18-.399.4-.399h1.6a.4.4 0 0 1 .4.4v1.996h2a.4.4 0 0 1 .4.399v1.597a.4.4 0 0 1-.4.4zm-7.6-1.198c0 3.083-2.512 5.59-5.6 5.59-3.088 0-5.6-2.507-5.6-5.59 0-3.082 2.512-5.59 5.6-5.59 1.42 0 2.773.532 3.812 1.496a.4.4 0 0 1 .02.564l-1.089 1.17a.399.399 0 0 1-.565.02 3.2 3.2 0 0 0-5.378 2.34 3.2 3.2 0 0 0 3.2 3.194 3.23 3.23 0 0 0 2.966-1.996H12a.4.4 0 0 1-.4-.4V15.18c0-.22.18-.4.4-.4h5.2a.4.4 0 0 1 .4.4v.798zM16 4C9.383 4 4 9.373 4 15.977c0 6.605 5.383 11.978 12 11.978s12-5.373 12-11.978C28 9.373 22.617 4 16 4z"/>
    </g>
</svg>
