<svg xmlns="http://www.w3.org/2000/svg" width="48" height="48" viewBox="0 0 48 48">
    <g fill="none" fill-rule="nonzero">
        <path d="M0 0h48v48H0z"/>
        <path fill="#DC4E41" d="M6 24c0-9.941 8.059-18 18-18s18 8.059 18 18-8.059 18-18 18S6 33.941 6 24z"/>
        <path fill="#FFF" d="M20.727 23.486h5.408c.05.285.09.57.09.944 0 3.257-2.192 5.57-5.498 5.57C17.561 30 15 27.451 15 24.3c0-3.151 2.56-5.7 5.727-5.7 1.547 0 2.84.562 3.838 1.49l-1.555 1.49c-.425-.407-1.17-.88-2.283-.88-1.955 0-3.55 1.613-3.55 3.6s1.595 3.6 3.55 3.6c2.267 0 3.118-1.621 3.248-2.46h-3.248v-1.954zm12.273 0v1.628h-1.636v1.629h-1.637v-1.629h-1.636v-1.628h1.636v-1.629h1.637v1.629H33z"/>
    </g>
</svg>
