<svg xmlns="http://www.w3.org/2000/svg" width="32" height="32" viewBox="0 0 32 32">
    <g fill="none" fill-rule="evenodd">
        <path fill="none" d="M0 0h32v32H0z"/>
        <path fill="#212121" d="M26.154 21.966V9.99A4.155 4.155 0 0 0 22 5.843H10a4.155 4.155 0 0 0-4.154 4.146v11.977A4.155 4.155 0 0 0 10 26.112h12c2.29 0 4.154-1.86 4.154-4.146zM22 4c3.308 0 6 2.687 6 5.989v11.977c0 3.302-2.692 5.989-6 5.989H10c-3.308 0-6-2.687-6-5.989V9.99C4 6.687 6.692 4 10 4h12zm-6.02 16.604a4.637 4.637 0 0 0 4.635-4.627 4.636 4.636 0 0 0-9.27 0 4.636 4.636 0 0 0 4.635 4.627zm0-11.096c3.574 0 6.482 2.902 6.482 6.47 0 3.567-2.908 6.469-6.482 6.469-3.574 0-6.481-2.902-6.481-6.47 0-3.567 2.907-6.47 6.48-6.47zm6.482-2.744c.508 0 .923.414.923.921a.924.924 0 0 1-1.847 0c0-.507.415-.921.924-.921z"/>
    </g>
</svg>
