<svg xmlns="http://www.w3.org/2000/svg" width="120" height="70" viewBox="0 0 80 48">
    <g fill="none" fill-rule="evenodd">
        <path fill="#000" d="M22.559 24.853c.09-.579.228-1.119.417-1.62.19-.501.396-.913.618-1.237.223-.323.423-.473.602-.45a.343.343 0 0 1 .3.266c.044.156.055.346.034.569a3.473 3.473 0 0 1-.168.735l-.266.802a8.018 8.018 0 0 1-.685 1.32c-.3.48-.574.874-.819 1.186-.11-.467-.122-.99-.033-1.57zm-5.31-3.842c-.913.044-1.659.033-2.237-.034.022-.535.05-1.053.083-1.554.034-.501.073-.975.117-1.42.088-.735.178-1.487.267-2.256.089-.769.178-1.515.268-2.239l.25-2.039c.077-.635.172-1.174.284-1.62.69-.223 1.34-.424 1.953-.602a17.56 17.56 0 0 1 1.87-.435 15.962 15.962 0 0 1 1.988-.217c.69-.033 1.436-.038 2.238-.016a24.59 24.59 0 0 1 1.77.166c.711.09 1.385.274 2.02.552a3.815 3.815 0 0 1 1.536 1.186c.389.513.506 1.204.35 2.072-.245 1.226-.7 2.29-1.369 3.192a10.724 10.724 0 0 1-2.37 2.339 12.696 12.696 0 0 1-2.973 1.588c-1.069.4-2.116.713-3.14.936a17.846 17.846 0 0 1-2.905.4zm44.65 6.85c.512 0 1.096-.306 1.753-.919.657-.613 1.197.029.818.451a7.471 7.471 0 0 1-1.252 1.12c-.457.323-.919.484-1.386.484-.512.023-.913-.077-1.202-.3a3.415 3.415 0 0 1-.701-.703 2.482 2.482 0 0 1-.401-1.002c-.245.424-.49.791-.735 1.103-.223.268-.48.519-.769.752-.289.234-.578.34-.867.318-.157 0-.357-.045-.602-.134-.245-.09-.479-.267-.701-.535-.223-.267-.395-.646-.518-1.136a3.632 3.632 0 0 1-.095-.852c-.17.25-.358.505-.573.768-.389.48-.84.908-1.352 1.287a2.75 2.75 0 0 1-1.67.568c-.646 0-1.158-.161-1.536-.484a3.344 3.344 0 0 1-.869-1.12 3.962 3.962 0 0 1-.35-1.136c-.19.283-.398.57-.65.868a5.98 5.98 0 0 1-1.354 1.17 2.928 2.928 0 0 1-1.72.468c-.58-.022-1.03-.138-1.352-.35a2.146 2.146 0 0 1-.735-.786 2.652 2.652 0 0 1-.3-1.019c-.034-.368-.05-.707-.05-1.02v-.802c0-.222-.045-.345-.134-.368-.067-.021-.167.18-.3.603-.134.423-.312.89-.535 1.403-.223.513-.49.98-.8 1.403-.313.424-.68.625-1.103.602-.334-.022-.568-.162-.701-.418a2.45 2.45 0 0 1-.25-.918 5.555 5.555 0 0 1 .016-1.137c.044-.4.077-.769.1-1.103.044-.356.055-.646.033-.868-.022-.223-.09-.335-.2-.335-.045 0-.106.084-.184.25-.054.117-.115.24-.175.362-.05.235-.138.495-.276.791a29.42 29.42 0 0 0-.434.786 7.461 7.461 0 0 1-.885 1.27c-.367.434-.796.819-1.285 1.153-.49.334-1.009.468-1.603.468-.624-.022-1.114-.184-1.47-.485a2.868 2.868 0 0 1-.785-1.002 3.713 3.713 0 0 1-.317-1.086 6.886 6.886 0 0 1-.067-.769 3.733 3.733 0 0 1 .05-.97c.056-.267.106-.495.15-.684.045-.19.084-.335.118-.435.033-.1.016-.172-.05-.217-.09-.067-.162-.095-.217-.084a.296.296 0 0 0-.151.084 2.37 2.37 0 0 1-.167.15.406.406 0 0 1-.267.084c-.223 0-.423-.028-.601-.083-.179-.056-.29.005-.335.183-.021.134-.094.324-.216.569-.08.16-.137.262-.174.317a3.367 3.367 0 0 1-.277.685 28.45 28.45 0 0 0-.45.818 7.745 7.745 0 0 1-.952 1.354c-.401.468-.869.886-1.403 1.253a2.998 2.998 0 0 1-1.737.552c-.757-.022-1.357-.172-1.803-.451a2.92 2.92 0 0 1-1.02-1.036 3.73 3.73 0 0 1-.45-1.354c-.066-.49-.088-.957-.066-1.404.022-.445.133-.969.334-1.57.2-.601.456-1.153.768-1.654.25-.403.539-.716.86-.946a27.154 27.154 0 0 1-3.098.924 20.317 20.317 0 0 1-3.055.484c-.924.067-1.642.078-2.154.033 0 .645.01 1.312.033 2.002.022.69.039 1.318.05 1.886.011.566.028 1.05.05 1.45.023.401.033.634.033.702 0 .11.017.221.05.333a.508.508 0 0 1 .017.283c-.022.078-.094.123-.216.134-.123.012-.318-.028-.585-.117-.29-.089-.496-.25-.618-.484a2.489 2.489 0 0 1-.25-.734c-.045-.256-.045-.572 0-.95l.067-1.636c.021-.467.044-.984.067-1.55.021-.568.054-1.13.1-1.686-.535-.29-.83-.54-.885-.75a3.477 3.477 0 0 1-.084-.351c0-.111.028-.206.084-.284.054-.078.138-.072.25.017.111.156.345.278.701.367.045-.556.072-1.09.084-1.602.011-.512.017-.968.017-1.368 0-.467.033-1.012.1-1.635.066-.622.15-1.273.25-1.952l.3-2.019c.101-.667.206-1.278.318-1.834l-.2.033a23.806 23.806 0 0 0-4.091 1.802c-.59.333-1.102.657-1.537.968-.434.31-.751.589-.951.833a.812.812 0 0 0-.117.284.47.47 0 0 0 .016.217.416.416 0 0 1 .017.2.247.247 0 0 1-.117.167c-.111.067-.205.061-.284-.017a.793.793 0 0 1-.183-.334 5.233 5.233 0 0 1-.117-.45 1.862 1.862 0 0 1-.05-.367c.022-.511.233-.912.634-1.201.4-.289.824-.556 1.27-.8a44.746 44.746 0 0 1 1.602-.885c.49-.256.968-.484 1.436-.685.467-.2.93-.382 1.386-.55.456-.166.952-.339 1.486-.517a3.85 3.85 0 0 0 .084-.517c.01-.144.028-.262.05-.35.021-.29.067-.495.134-.618.066-.122.144-.2.233-.234a.465.465 0 0 1 .3 0c.112.033.234.073.368.117a.75.75 0 0 0 .217.1.322.322 0 0 1 .184.134.55.55 0 0 1 .067.3c0 .134-.034.344-.1.634a39.227 39.227 0 0 1 1.987-.55c.59-.145 1.162-.256 1.72-.334a21.135 21.135 0 0 1 1.77-.167 17.321 17.321 0 0 1 2.137.017 9.452 9.452 0 0 1 2.655.468 8.97 8.97 0 0 1 2.405 1.166c.7.49 1.246 1.058 1.636 1.703.39.645.506 1.312.35 2.002-.29 1.313-.817 2.452-1.586 3.42a11.923 11.923 0 0 1-2.721 2.502 16.177 16.177 0 0 1-2.924 1.542c.247-.005.497.065.752.23.356.223.585.485.685.786.1.3.128.618.083.952a4.487 4.487 0 0 1-.267 1.02l-.367.952c-.267.69-.58 1.315-.935 1.872-.356.556-.657.98-.901 1.27.333.29.767.434 1.302.434.6 0 1.146-.162 1.636-.485.49-.322.93-.713 1.32-1.17.388-.456.728-.93 1.018-1.42.189-.32.353-.602.504-.867l.03-.085c.044-.123.088-.273.134-.451.043-.179.088-.368.133-.568.044-.201.067-.39.067-.569 0-.267.022-.534.067-.802a3.92 3.92 0 0 1 .183-.718c.078-.212.179-.384.301-.519.122-.133.25-.188.384-.167.134 0 .25.05.35.151a1.229 1.229 0 0 1 .35.652c.023.111.034.2.034.267 0 .156-.05.307-.15.451-.1.145-.106.262-.017.351.068.09.15.123.251.1.1-.022.172-.044.217-.066.044-.022.122-.067.234-.134a1.706 1.706 0 0 1 .868-.234c.178 0 .368.056.568.167.111.067.188.167.234.3.044.135.072.268.083.401.01.134.005.301-.017.502a1.44 1.44 0 0 1-.117.468 5.975 5.975 0 0 0-.166.367 2.961 2.961 0 0 0-.15.502c-.046.2-.067.48-.067.836-.023.712.05 1.325.217 1.837.166.513.584.769 1.252.769.401 0 .796-.15 1.185-.451.39-.301.752-.663 1.086-1.087.334-.423.64-.868.918-1.337.203-.34.379-.643.54-.925.005-.033.005-.058.01-.093.046-.256.168-.563.368-.92.089-.155.201-.278.334-.367a.767.767 0 0 1 .434-.134c.156 0 .312.056.468.167.156.112.289.313.4.602.134.357.19.758.168 1.204a20.95 20.95 0 0 1-.1 1.27c-.045.4-.073.745-.083 1.035-.012.29.071.457.25.502.133.022.311-.185.534-.62.222-.433.456-.935.701-1.503.245-.568.468-1.12.668-1.654.2-.535.345-.89.434-1.07.156-.378.385-.556.685-.534.3.022.584.19.851.501.09.09.117.28.084.568-.034.29-.084.635-.15 1.036a33.64 33.64 0 0 0-.184 1.253 4.491 4.491 0 0 0 0 1.22c.055.38.184.702.384.97.2.267.523.412.968.434.512.045.99-.083 1.437-.384.444-.301.852-.674 1.22-1.12.366-.445.688-.919.967-1.42l.178-.32c.023-.156.045-.313.073-.465.044-.29.089-.59.133-.903a.64.64 0 0 1 .3-.334.788.788 0 0 1 .802.05c.111.078.167.195.167.35 0 .023-.028.163-.083.419-.056.256-.106.563-.15.919-.046.356-.068.74-.068 1.153 0 .412.045.785.134 1.12.089.334.256.612.501.835.245.223.579.322 1.002.3.445-.022.88-.2 1.302-.534.423-.334.82-.73 1.186-1.187.367-.456.695-.935.985-1.437l.263-.458c.097-.358.22-.691.371-.995.29-.58.612-1.053.97-1.42.355-.368.717-.636 1.084-.803.367-.167.685-.25.952-.25.49.022.857.122 1.102.3.245.18.418.38.518.602.1.223.144.434.133.634a9.087 9.087 0 0 0-.016.369c-.067.223-.14.379-.217.467a.537.537 0 0 1-.217.167.255.255 0 0 1-.201-.016 1.492 1.492 0 0 0-.2-.084c.044-.245.033-.479-.034-.701a1.11 1.11 0 0 0-.267-.486c-.134-.144-.345-.228-.634-.25-.245 0-.485.078-.719.234-.233.156-.45.373-.65.651a5.156 5.156 0 0 0-.535.953 6.6 6.6 0 0 0-.534 2.239c-.022.38-.006.714.05 1.003.055.29.15.524.284.702.133.178.3.266.5.266.312 0 .607-.177.885-.534.279-.356.524-.768.736-1.237.21-.467.384-.935.517-1.403.134-.468.222-.802.267-1.003.022-.088.1-.138.234-.15.133-.011.278.006.434.05.155.045.295.117.418.217.121.1.172.218.15.351-.223.736-.34 1.332-.35 1.789a2.64 2.64 0 0 0 .25 1.236c.178.367.545.552 1.102.552zm-12.124-6.138c-.239.13-.445.177-.618.14-.304-.057-.494-.168-.569-.335a1.14 1.14 0 0 1-.114-.473c.021-.13.108-.31.26-.542.152-.232.401-.338.748-.32l-.033.028c.348.037.554.172.618.403.065.232.098.44.098.626-.022.186-.152.343-.39.473zm23.669 2.1c.083.02.141.1.173.235.031.136.025.325-.016.565a3.417 3.417 0 0 1-.283.833c-.063.105-.21.367-.44.785-.231.42-.562.854-.99 1.304-.431.45-.945.848-1.542 1.194-.597.345-1.285.497-2.06.456-1.069-.063-1.866-.404-2.39-1.022-.524-.617-.89-1.386-1.1-2.309v.032a.36.36 0 0 1 .03-.251c.043-.168.169-.283.378-.346.21-.063.351-.032.425.094.073.126.12.241.141.346.147.482.336.89.566 1.225a.445.445 0 0 1 .189-.031c.063 0 .168-.016.315-.047.146-.032.303-.1.471-.205.168-.105.314-.251.44-.44.127-.188.2-.45.22-.785a6.795 6.795 0 0 0-.046-1.273 3.157 3.157 0 0 0-.252-.88 3.677 3.677 0 0 0-.362-.612 4.485 4.485 0 0 1-.314-.47c-.021.146-.078.36-.173.643-.095.283-.2.571-.314.864a56.066 56.066 0 0 0-.489 1.288c-.02.063-.078.095-.172.095a.745.745 0 0 1-.267-.047.528.528 0 0 1-.22-.158c-.063-.073-.075-.172-.032-.298.189-.481.356-.943.503-1.383.127-.355.252-.722.378-1.099.125-.377.22-.65.283-.817.104-.335.199-.628.283-.88.083-.25.272-.377.565-.377.273 0 .473.068.598.204.126.136.215.298.268.485.052.188.078.38.078.58v.484c0 .167.052.412.158.736a64.316 64.316 0 0 1 .612 2.003c.095.323.132.568.111.735a3.183 3.183 0 0 1-.283 1.049c-.147.302-.33.552-.55.75-.22.199-.456.345-.709.439-.25.094-.482.12-.69.078.46.438 1.037.657 1.728.657.587 0 1.117-.162 1.589-.487a6.347 6.347 0 0 0 1.273-1.162c.377-.45.708-.916.99-1.398.284-.482.52-.89.709-1.226.063-.125.135-.177.22-.156zm-7.702-7.641a.795.795 0 0 1-.129.272 35.719 35.719 0 0 1-.67 1.529c-.171.408-.347.798-.528 1.172a9.17 9.17 0 0 0-.367.833c-.3.68-.587.906-.864.68a.66.66 0 0 1-.223-.425c-.022-.17-.022-.3 0-.391.02-.046.106-.272.256-.68.149-.408.324-.854.527-1.342.202-.487.4-.957.591-1.41.192-.453.33-.736.416-.85h.032c.17-.249.292-.39.367-.425.075-.034.218.074.432.323a.768.768 0 0 1 .176.39c.01.125.005.234-.016.324z"/>
        <path fill="#ED3897" d="M13.378 40.53v-5.957h1.504c1.654 0 2.569.885 2.569 2.27 0 1.374-.924 2.268-2.569 2.268h-.572v1.42h-.932zm.932-2.234h.537c1.179 0 1.654-.552 1.654-1.454 0-.902-.484-1.454-1.654-1.454h-.537v2.908zm7.31 2.313c-1.715 0-3.087-1.279-3.087-3.057 0-1.779 1.372-3.058 3.087-3.058 1.707 0 3.079 1.28 3.079 3.058 0 1.778-1.372 3.057-3.079 3.057zm0-.832c1.25 0 2.129-.955 2.129-2.225s-.88-2.225-2.129-2.225-2.137.954-2.137 2.225c0 1.27.888 2.225 2.137 2.225zm4.469.753v-5.957h1.504c1.653 0 2.568.885 2.568 2.27 0 1.374-.923 2.268-2.568 2.268h-.572v1.42h-.932zm.932-2.234h.537c1.178 0 1.653-.552 1.653-1.454 0-.902-.483-1.454-1.653-1.454h-.537v2.908zm4.64-.254v-.797h1.856v.797h-1.856zm5.916 2.567c-1.302 0-2.279-.727-2.279-2.172v-3.864h.933v3.81c0 .965.475 1.394 1.346 1.394.87 0 1.354-.43 1.354-1.393v-3.81h.924v3.863c0 1.445-.985 2.172-2.278 2.172zm3.905-.079v-5.957h1.504c1.654 0 2.569.885 2.569 2.27 0 1.374-.924 2.268-2.569 2.268h-.571v1.42h-.933zm.933-2.234h.536c1.179 0 1.654-.552 1.654-1.454 0-.902-.484-1.454-1.654-1.454h-.536v2.908zm8.347 2.313c-1.134 0-1.82-.56-2.155-1.235l.766-.42c.281.464.642.832 1.372.832.607 0 1.038-.325 1.038-.815 0-.517-.352-.745-1.003-1.034l-.396-.175c-.87-.386-1.398-.824-1.398-1.743 0-.885.686-1.516 1.68-1.516.791 0 1.328.298 1.689.937l-.73.447c-.23-.394-.493-.578-.96-.578-.474 0-.773.29-.773.692 0 .447.255.648.862.911l.387.175c1.02.447 1.565.92 1.565 1.875 0 1.043-.818 1.647-1.944 1.647zm3.29-.079v-5.957h.933v3.206h2.876v-3.206h.933v5.957h-.933v-1.927h-2.876v1.927h-.933zm9.219.08c-1.715 0-3.088-1.28-3.088-3.058 0-1.779 1.373-3.058 3.088-3.058 1.706 0 3.079 1.28 3.079 3.058 0 1.778-1.373 3.057-3.08 3.057zm0-.833c1.249 0 2.129-.955 2.129-2.225s-.88-2.225-2.13-2.225c-1.248 0-2.137.954-2.137 2.225 0 1.27.889 2.225 2.138 2.225zm4.468.753v-5.957h1.505c1.653 0 2.568.885 2.568 2.27 0 1.374-.923 2.268-2.568 2.268h-.572v1.42h-.933zm.933-2.234h.536c1.18 0 1.654-.552 1.654-1.454 0-.902-.484-1.454-1.654-1.454h-.536v2.908z"/>
    </g>
</svg>
