<svg xmlns="http://www.w3.org/2000/svg" width="84" height="24" viewBox="0 0 84 24">
    <g fill="none" fill-rule="evenodd">
        <path d="M0 0h84v24H0z"/>
        <path fill="#FF5F00" d="M15.013 16.573h5.18V7.268h-5.18z"/>
        <path fill="#EB001B" d="M15.342 11.92c0-1.887.884-3.568 2.261-4.652a5.919 5.919 0 1 0 0 9.305 5.907 5.907 0 0 1-2.261-4.652"/>
        <path fill="#F79E1B" d="M26.997 15.588v-.23h-.06l-.07.158-.068-.158h-.06v.23h.042v-.174l.065.15h.044l.064-.15v.174h.043zm-.38 0v-.19h.077v-.04h-.196v.04h.077v.19h.042zm.565-3.667a5.919 5.919 0 0 1-9.579 4.652 5.907 5.907 0 0 0 2.261-4.652c0-1.888-.884-3.57-2.26-4.653a5.919 5.919 0 0 1 9.579 4.653h-.001z"/>
        <path fill="#000" d="M39.006 11.946c0-.691.453-1.26 1.194-1.26.708 0 1.186.544 1.186 1.26s-.478 1.26-1.186 1.26c-.741 0-1.194-.568-1.194-1.26zm3.187 0V9.978h-.856v.478c-.272-.354-.684-.576-1.244-.576-1.104 0-1.969.864-1.969 2.066s.865 2.067 1.969 2.067c.56 0 .972-.223 1.244-.577v.478h.856v-1.968zm28.928 0c0-.691.453-1.26 1.195-1.26.708 0 1.186.544 1.186 1.26s-.478 1.26-1.186 1.26c-.742 0-1.195-.568-1.195-1.26zm4.146 1.781v.062h.057a.056.056 0 0 0 .032-.008c.007-.005.011-.013.011-.023a.026.026 0 0 0-.011-.023.056.056 0 0 0-.032-.008h-.057zm.058-.043c.03 0 .053.006.069.02a.067.067 0 0 1 .024.054c0 .019-.006.035-.02.047a.091.091 0 0 1-.054.023l.076.088h-.06l-.07-.087h-.023v.087h-.05v-.232h.108zm-.015.311a.187.187 0 0 0 .137-.057.19.19 0 0 0 .056-.138.192.192 0 0 0-.193-.193.196.196 0 0 0-.139.056.193.193 0 0 0-.056.137.195.195 0 0 0 .056.138.199.199 0 0 0 .14.057zm0-.444a.253.253 0 0 1 .254.25.24.24 0 0 1-.074.176.262.262 0 0 1-.18.073.254.254 0 0 1-.256-.25.252.252 0 0 1 .256-.25zm-1-1.605V8.398h-.858v2.058c-.272-.354-.683-.576-1.243-.576-1.104 0-1.97.864-1.97 2.066s.866 2.067 1.97 2.067c.56 0 .971-.223 1.243-.577v.478h.857v-1.968zm-21.491-1.3c.552 0 .906.345.997.954h-2.043c.09-.568.436-.955 1.046-.955zm.016-.766c-1.153 0-1.96.84-1.96 2.066 0 1.252.84 2.067 2.018 2.067.593 0 1.137-.148 1.615-.552l-.42-.634c-.33.264-.75.412-1.146.412-.551 0-1.054-.255-1.177-.963h2.924c.008-.108.016-.215.016-.33-.008-1.227-.766-2.066-1.87-2.066zm10.338 2.066c0-.691.453-1.26 1.194-1.26.708 0 1.186.544 1.186 1.26s-.478 1.26-1.186 1.26c-.741 0-1.194-.568-1.194-1.26zm3.187 0V9.978h-.856v.478c-.272-.354-.684-.576-1.244-.576-1.104 0-1.969.864-1.969 2.066s.865 2.067 1.969 2.067c.56 0 .972-.223 1.244-.577v.478h.856v-1.968zm-8.022 0c0 1.194.832 2.067 2.1 2.067.593 0 .988-.132 1.417-.47l-.412-.691c-.321.23-.659.354-1.03.354-.683-.008-1.186-.502-1.186-1.26 0-.757.503-1.251 1.186-1.26.371 0 .709.124 1.03.354l.412-.691c-.429-.338-.824-.47-1.417-.47-1.268 0-2.1.873-2.1 2.067zM69.375 9.88c-.494 0-.815.23-1.038.576v-.478h-.848v3.936h.856v-2.207c0-.65.28-1.012.84-1.012.174 0 .355.024.536.098l.264-.806a1.83 1.83 0 0 0-.61-.107zm-22.948.411c-.412-.271-.98-.411-1.606-.411-.997 0-1.64.477-1.64 1.26 0 .642.478 1.037 1.36 1.16l.403.058c.47.066.692.19.692.411 0 .305-.313.478-.897.478-.594 0-1.022-.19-1.31-.412l-.404.667c.47.346 1.063.51 1.705.51 1.137 0 1.796-.535 1.796-1.284 0-.691-.519-1.053-1.376-1.177l-.403-.058c-.37-.05-.667-.123-.667-.387 0-.288.28-.46.75-.46.502 0 .988.189 1.226.337l.371-.692zm11.046-.411c-.494 0-.816.23-1.038.576v-.478h-.848v3.936h.856v-2.207c0-.65.28-1.012.84-1.012.173 0 .355.024.536.098l.263-.806a1.83 1.83 0 0 0-.61-.107zm-7.306.098h-1.4V8.784H47.9v1.194h-.799v.783h.8v1.794c0 .914.354 1.458 1.367 1.458.37 0 .799-.116 1.07-.305l-.247-.733a1.581 1.581 0 0 1-.757.223c-.429 0-.569-.264-.569-.659v-1.778h1.4v-.783zm-12.8 3.936v-2.47c0-.93-.594-1.556-1.549-1.564-.502-.009-1.021.148-1.384.7-.272-.437-.7-.7-1.301-.7-.42 0-.832.123-1.153.584v-.486h-.857v3.936h.865v-2.182c0-.683.379-1.045.963-1.045.569 0 .857.37.857 1.037v2.19h.865v-2.182c0-.683.395-1.045.964-1.045.585 0 .865.37.865 1.037v2.19h.864z"/>
    </g>
</svg>
