<svg xmlns="http://www.w3.org/2000/svg" xmlns:xlink="http://www.w3.org/1999/xlink" width="60" height="24" viewBox="0 0 60 24">
    <defs>
        <path id="a" d="M43.495 10.643V.088H.006v10.555z"/>
    </defs>
    <g fill="none" fill-rule="evenodd">
        <path d="M0 0h60v24H0z"/>
        <path fill="#009CDE" d="M49.994 9.617l-.982 6.245a.2.2 0 0 0 .197.23h.987a.332.332 0 0 0 .329-.28l.967-6.133a.2.2 0 0 0-.197-.23h-1.104a.2.2 0 0 0-.197.168M47.048 13.89a1.277 1.277 0 0 1-1.293 1.094c-.332 0-.598-.107-.769-.309-.169-.2-.233-.486-.179-.805a1.282 1.282 0 0 1 1.283-1.102c.326 0 .59.108.764.312.175.206.244.494.194.81zm1.596-2.229h-1.145a.2.2 0 0 0-.197.168l-.05.32-.08-.115c-.249-.36-.801-.48-1.353-.48-1.265 0-2.346.958-2.557 2.303-.109.671.046 1.312.427 1.76.35.41.848.582 1.442.582 1.02 0 1.585-.655 1.585-.655l-.05.318a.2.2 0 0 0 .196.23h1.032a.332.332 0 0 0 .328-.28l.619-3.92a.2.2 0 0 0-.197-.23zM41.772 11.688c-.13.86-.787.86-1.42.86h-.362l.254-1.604a.2.2 0 0 1 .196-.168h.166c.431 0 .84 0 1.05.246.125.147.163.365.116.666zm-.276-2.24h-2.392a.332.332 0 0 0-.328.281l-.967 6.133a.2.2 0 0 0 .197.23h1.227a.232.232 0 0 0 .23-.196l.274-1.738a.332.332 0 0 1 .328-.281h.757c1.575 0 2.484-.762 2.722-2.274.107-.66.004-1.18-.305-1.543-.34-.4-.943-.612-1.743-.612z"/>
        <path fill="#003087" d="M37.686 11.661h-1.151a.332.332 0 0 0-.275.146l-1.588 2.339-.673-2.248a.332.332 0 0 0-.318-.237h-1.132a.2.2 0 0 0-.189.264l1.268 3.72-1.192 1.683a.2.2 0 0 0 .162.315h1.15a.332.332 0 0 0 .273-.143l3.829-5.526a.2.2 0 0 0-.164-.313M29.99 13.89a1.277 1.277 0 0 1-1.292 1.094c-.332 0-.598-.107-.77-.309-.169-.2-.232-.486-.179-.805a1.282 1.282 0 0 1 1.284-1.102c.325 0 .589.108.763.312.176.206.245.494.194.81zm1.596-2.229h-1.145a.2.2 0 0 0-.197.168l-.05.32-.08-.115c-.248-.36-.8-.48-1.353-.48-1.265 0-2.346.958-2.556 2.303-.11.671.046 1.312.426 1.76.35.41.848.582 1.442.582 1.02 0 1.586-.655 1.586-.655l-.051.318a.2.2 0 0 0 .197.23h1.03a.332.332 0 0 0 .33-.28l.618-3.92a.2.2 0 0 0-.197-.23zM24.714 11.688c-.13.86-.786.86-1.42.86h-.361l.253-1.604a.2.2 0 0 1 .197-.168h.165c.432 0 .84 0 1.05.246.126.147.164.365.116.666zm-.276-2.24h-2.392a.332.332 0 0 0-.328.281l-.967 6.133a.2.2 0 0 0 .197.23h1.142a.332.332 0 0 0 .328-.28l.261-1.654a.332.332 0 0 1 .328-.281h.757c1.575 0 2.485-.762 2.722-2.274.107-.66.005-1.18-.305-1.543-.34-.4-.943-.612-1.743-.612z"/>
        <g transform="translate(8 7)">
            <mask id="b" fill="#fff">
                <use xlink:href="#a"/>
            </mask>
            <path fill="#009CDE" d="M8.06 2.77c.128-.821-.001-1.38-.445-1.886C7.125.327 6.243.088 5.113.088h-3.28a.47.47 0 0 0-.464.396L.004 9.146a.281.281 0 0 0 .278.326h2.024l-.14.886a.246.246 0 0 0 .244.285h1.707a.41.41 0 0 0 .405-.347l.017-.087.321-2.039.021-.112a.41.41 0 0 1 .406-.347h.255c1.653 0 2.948-.672 3.326-2.615.158-.812.077-1.49-.341-1.966a1.627 1.627 0 0 0-.468-.36" mask="url(#b)"/>
            <path fill="#012169" d="M8.06 2.77c.128-.821-.001-1.38-.445-1.886C7.125.327 6.243.088 5.113.088h-3.28a.47.47 0 0 0-.464.396L.004 9.146a.281.281 0 0 0 .278.326h2.024l.51-3.226-.017.101a.468.468 0 0 1 .462-.396h.963c1.89 0 3.37-.768 3.802-2.99a5.18 5.18 0 0 0 .033-.191" mask="url(#b)"/>
            <path fill="#003087" d="M3.361 2.78a.41.41 0 0 1 .406-.346h2.57c.306 0 .59.02.85.062a3.721 3.721 0 0 1 .517.124c.128.042.246.092.355.15.13-.821 0-1.38-.444-1.886C7.125.327 6.243.088 5.113.088h-3.28a.47.47 0 0 0-.464.396L.004 9.146a.281.281 0 0 0 .278.326h2.024L3.361 2.78" mask="url(#b)"/>
        </g>
    </g>
</svg>
