<svg xmlns="http://www.w3.org/2000/svg" width="32" height="32" viewBox="0 0 32 32">
    <g fill="none" fill-rule="evenodd">
        <path fill="#D8D8D8" fill-opacity="0" fill-rule="nonzero" d="M0 0h32v32H0z"/>
        <path fill="#212121" d="M16.13 4C8.653 4 6 8.565 6 12.474c0 2.974 2.243 5.685 3.446 6.305a.402.402 0 0 0 .57-.245l.802-2.77a.402.402 0 0 0-.09-.382c-.511-.554-1.121-1.452-1.121-2.582 0-3.506 2.397-5.6 6.412-5.6 3.094 0 5.61 2.333 5.61 5.2 0 2.617-2.134 5.6-4.007 5.6-1.692 0-2.293-.889-2.262-1.722 1.129-1.112 1.505-3.47 1.505-4.001.001-.302.003-.863-.428-1.288-.395-.39-1.075-.589-2.021-.589-2.337 0-2.96 1.838-2.96 2.923 0 .824.497 1.966.509 2.041l-2.207 9.895c-.026.141-.235 1.41.694 2.588a.4.4 0 0 0 .544.082c.452-.315 1.265-.956 1.626-1.731.455-.975 1.801-4.613 2.38-6.192a.111.111 0 0 1 .077-.064l.1.021c.01.008 1.012.837 2.844.837 5.694 0 7.213-5.234 7.213-8.326C25.236 9.326 23.318 4 16.13 4"/>
    </g>
</svg>
