<svg xmlns="http://www.w3.org/2000/svg" width="40" height="40" viewBox="0 0 40 40">
    <g fill="none" fill-rule="evenodd">
        <g transform="translate(8 5)">
            <path stroke="#212121" stroke-width="1.5" d="M10.5 3h3v4h-3zM-.021 9.161L3.161 5.98l3.182 3.182-3.182 3.182zM20.84 5.98L24.02 9.16l-3.182 3.182-3.182-3.182z"/>
            <circle cx="12" cy="18" r="12" fill="#FFF" stroke="#212121" stroke-width="1.5"/>
            <path stroke="#212121" stroke-width="1.5" d="M9 0h6v3H9z"/>
            <path fill="#212121" fill-rule="nonzero" d="M8.448 12c1.368 0 2.466 1.062 2.466 2.43a2.443 2.443 0 0 1-2.466 2.448A2.428 2.428 0 0 1 6 14.43C6 13.062 7.08 12 8.448 12zm6.444.144l1.35.846-7.83 11.646-1.35-.846 7.83-11.646zM8.448 13.53c-.486 0-.9.378-.9.9s.414.918.9.918a.91.91 0 0 0 .918-.918c0-.522-.414-.9-.918-.9zm6.408 6.372a2.428 2.428 0 0 1 2.448 2.448c0 1.368-1.08 2.43-2.448 2.43-1.368 0-2.466-1.062-2.466-2.43a2.443 2.443 0 0 1 2.466-2.448zm0 1.53a.91.91 0 0 0-.918.918c0 .522.414.9.918.9.486 0 .9-.378.9-.9a.907.907 0 0 0-.9-.918z"/>
        </g>
        <path fill-rule="nonzero" stroke="#212121" stroke-width="1.5" d="M-10-10h456v64H-10z"/>
        <path fill-rule="nonzero" stroke="#212121" stroke-width="2" d="M-10-10h456v64H-10z"/>
    </g>
</svg>
