<svg xmlns="http://www.w3.org/2000/svg" width="32" height="32" viewBox="0 0 32 32">
    <g fill="none" fill-rule="evenodd">
        <path fill="none" d="M0 0h32v32H0z"/>
        <path fill="#212121" d="M27.898 8.327a.402.402 0 0 0-.478-.09c-.188.094-.604.227-1.059.343.462-.53.847-1.17 1-1.735a.4.4 0 0 0-.61-.435c-.308.21-1.756.824-2.653 1.002C22.983 6.437 21.878 6 20.539 6c-.99 0-1.912.272-2.984.882-1.912 1.088-2.202 3.481-2.037 4.884-5.287-.44-8.249-3.38-9.295-4.654a.4.4 0 0 0-.651.046c-.698 1.145-.89 2.43-.557 3.714.21.806.602 1.515 1.044 2.07a5.803 5.803 0 0 1-.906-.594.402.402 0 0 0-.649.312c0 2.324 1.57 3.91 2.923 4.693a8.122 8.122 0 0 1-.895-.22.4.4 0 0 0-.477.55c.828 1.784 2.504 3.097 4.357 3.492-1.601.998-3.873 1.496-5.967 1.259a.399.399 0 1 0-.237.747c2.438 1.334 4.97 1.983 7.74 1.983h.018c3.902-.003 7.534-1.669 10.225-4.689 2.44-2.737 3.71-6.207 3.43-9.332.66-.465 1.686-1.365 2.314-2.332a.398.398 0 0 0-.037-.484"/>
    </g>
</svg>
