<svg xmlns="http://www.w3.org/2000/svg" width="56" height="24" viewBox="0 0 56 24">
    <g fill="none" fill-rule="evenodd">
        <path d="M0 0h56v24H0z"/>
        <path fill="#16216A" d="M37.195 6.58l-.437 2.499-.29-.134a6.067 6.067 0 0 0-2.41-.441c-1.261 0-1.846.513-1.846.992-.007.54.683.896 1.81 1.43 1.86.824 2.716 1.822 2.704 3.133-.025 2.396-2.223 3.941-5.61 3.941-1.445-.014-2.838-.293-3.589-.614l.453-2.583.414.183c1.06.43 1.744.605 3.032.605.927 0 1.92-.352 1.93-1.126.005-.505-.418-.865-1.672-1.43-1.222-.552-2.84-1.478-2.823-3.134.02-2.243 2.263-3.808 5.446-3.808 1.249 0 2.25.252 2.888.486zm8.24-.487L48 18h-2.94s-.29-1.368-.385-1.785l-4.055-.005c-.125.322-.667 1.79-.667 1.79h-3.327L41.33 7.082c.333-.775.9-.989 1.66-.989h2.445zM11.607 7.584C10.561 7.011 9.356 6.552 8 6.24L8.04 6h5.288c.712.026 1.288.241 1.486.967l1.148 5.27a8.127 8.127 0 0 0-.215-.48c.13.273.238.546.321.817l.338 1.652 3.157-8.133h3.414l-5.076 11.902L14.49 18 11.607 7.584zm29.924 6.19c.262-.687 1.26-3.332 1.26-3.332-.017.033.261-.69.42-1.137l.215 1.028.734 3.44h-2.63zM22.409 18l1.967-11.907h3.151L25.554 18H22.41z"/>
    </g>
</svg>
