<svg xmlns="http://www.w3.org/2000/svg" width="32" height="32" viewBox="0 0 32 32">
    <g fill="none" fill-rule="evenodd">
        <path d="M0 0h32v32H0z"/>
        <path stroke="#979797" stroke-linejoin="round" stroke-width="1.5" d="M24.49 8.614c.993 1.062 1.538 2.51 1.509 4.012a6.14 6.14 0 0 1-.526 2.25C24.536 16.889 16 25 16 25s-8.526-8.116-9.473-10.124a5.295 5.295 0 0 1-.526-2.25c-.025-1.5.522-2.946 1.514-4.006S9.86 6.975 11.263 7c3.224 0 4.737 3.375 4.737 3.375s1.506-3.375 4.736-3.375c1.405-.03 2.76.552 3.753 1.613z"/>
    </g>
</svg>
